<svg width="14" height="9" viewBox="0 0 14 9" fill="none" xmlns="http://www.w3.org/2000/svg">
<g clip-path="url(#clip0_0_3)">
<path d="M13.8835 4.17072L10.3825 0.169718C10.2105 -0.0282823 9.87648 -0.062282 9.67548 0.118718C9.48048 0.293718 9.45248 0.627718 9.62448 0.825718L12.3995 3.99872L1.4965 3.99872C1.2205 3.99872 0.9965 4.22272 0.9965 4.49872C0.9965 4.77472 1.2205 4.99872 1.4965 4.99872L12.3995 4.99872L9.62448 8.17172C9.45248 8.36972 9.48148 8.70172 9.67548 8.87872C9.87848 9.06472 10.2115 9.02672 10.3825 8.82772L13.8835 4.82672C14.0535 4.56572 14.0235 4.37372 13.8835 4.17072Z" fill="#1540A0"/>
</g>
<defs>
<clipPath id="clip0_0_3">
<rect width="14" height="9" fill="white" transform="matrix(-1 0 0 -1 14 9)"/>
</clipPath>
</defs>
</svg>
